<?xml version="1.0" encoding="utf-8"?>
<svg xmlns="http://www.w3.org/2000/svg" style="margin: auto; display: block; shape-rendering: auto; background: none;" width="248" height="250" preserveAspectRatio="xMidYMid">
<style type="text/css">
  text {
    text-anchor: middle; font-size: 90px; opacity: 0;
  }
</style>
<g style="transform-origin: 124px 125px; transform: scale(1.125);">
<g transform="translate(124,125)">
  <g transform="translate(0,0)"><g class="path" style="transform: scale(0.91); transform-origin: -74.84px 5.03626px; animation: 1s linear -0.55s infinite normal forwards running breath-5e21f0f8-7c88-444b-933c-005400971c19;"><path d="M32.96 0.72L32.96 0.72L32.96 0.72Q25.92 0.72 25.28-5.44L25.28-5.44L25.28-5.44Q21.76 0.72 16.40 0.72L16.40 0.72L16.40 0.72Q11.04 0.72 7.88-2.52L7.88-2.52L7.88-2.52Q4.72-5.76 4.72-11.60L4.72-11.60L4.72-11.60Q4.72-20.72 9.20-25.92L9.20-25.92L9.20-25.92Q13.68-31.12 20.80-31.12L20.80-31.12L20.80-31.12Q26.64-31.12 28.56-25.60L28.56-25.60L28.56-25.60Q28.96-28 29.44-30.40L29.44-30.40L29.44-30.40Q35.36-30.40 38.24-30.88L38.24-30.88L39.28-31.12L33.76-0.88L33.76-0.88Q36.16-1.12 37.76-3.12L37.76-3.12L38.96-2.16L38.96-2.16Q36.56 0.72 32.96 0.72zM13.76-7.52L13.76-7.52Q13.76-3.92 14.68-2.52L14.68-2.52L14.68-2.52Q15.60-1.12 17.52-1.12L17.52-1.12L17.52-1.12Q19.44-1.12 21.44-3.20L21.44-3.20L21.44-3.20Q24.08-5.92 25.68-10.08L25.68-10.08L25.68-10.08Q25.92-11.12 26.60-15.08L26.60-15.08L26.60-15.08Q27.28-19.04 27.76-21.60L27.76-21.60L27.76-21.60Q27.52-24.64 26.08-26.88L26.08-26.88L26.08-26.88Q24.64-29.12 22.48-29.12L22.48-29.12L22.48-29.12Q18.56-29.12 16.16-22.12L16.16-22.12L16.16-22.12Q13.76-15.12 13.76-7.52L13.76-7.52" fill="#93dbe9" stroke="none" stroke-width="none" transform="translate(-96.84002685546875,20.23626597086588)" style="fill: rgb(147, 219, 233);"></path></g><g class="path" style="transform: scale(0.91); transform-origin: -41px -2.88374px; animation: 1s linear -0.44s infinite normal forwards running breath-5e21f0f8-7c88-444b-933c-005400971c19;"><path d="M62.24-51.84L62.24-51.84L62.24-51.84Q65.12-51.84 67-49.68L67-49.68L67-49.68Q68.88-47.52 68.88-43.20L68.88-43.20L68.88-43.20Q68.88-38.88 65.44-30.40L65.44-30.40L68.48-30.40L68.32-28.96L64.80-28.96L64.80-28.96Q62.08-22.16 62.08-18.64L62.08-18.64L60.64-18.64L60.64-18.64Q60.64-22.80 63.28-28.96L63.28-28.96L58.64-28.96L58.64-28.96Q56.24-16.40 52.48 5.60L52.48 5.60L42.80 5.60L48.96-28.96L44.08-28.96L44.24-30.40L49.20-30.40L50.48-37.28L50.48-37.28Q51.76-45.20 54.44-48.52L54.44-48.52L54.44-48.52Q57.12-51.84 62.24-51.84zM67.36-43.36L67.36-43.36L67.36-43.36Q67.36-46.24 66.04-48.32L66.04-48.32L66.04-48.32Q64.72-50.40 62.80-50.40L62.80-50.40L62.80-50.40Q62-47.28 58.88-30.40L58.88-30.40L63.84-30.40L63.84-30.40Q67.36-38.40 67.36-43.36" fill="#93dbe9" stroke="none" stroke-width="none" transform="translate(-96.84002685546875,20.23626597086588)" style="fill: rgb(104, 156, 197);"></path></g><g class="path" style="transform: scale(0.91); transform-origin: -14.04px 4.67626px; animation: 1s linear -0.33s infinite normal forwards running breath-5e21f0f8-7c88-444b-933c-005400971c19;"><path d="M69.44-27.28L68.24-28.24L68.24-28.24Q70.64-31.12 74.28-31.12L74.28-31.12L74.28-31.12Q77.92-31.12 79.92-29.28L79.92-29.28L79.92-29.28Q81.92-27.44 81.92-24.08L81.92-24.08L81.92-23.60L81.92-23.60Q85.52-31.12 91.28-31.12L91.28-31.12L91.28-31.12Q97.44-31.12 97.44-24.72L97.44-24.72L97.44-24.72Q97.44-22.08 95.68-19.12L95.68-19.12L95.68-19.12Q93.92-16.16 92.16-13.48L92.16-13.48L92.16-13.48Q90.40-10.80 90.40-8.72L90.40-8.72L88.48-8.72L88.48-8.72Q88.48-11.68 91.92-16.72L91.92-16.72L91.92-16.72Q95.36-21.76 95.36-24.52L95.36-24.52L95.36-24.52Q95.36-27.28 94.28-28.28L94.28-28.28L94.28-28.28Q93.20-29.28 91.08-29.28L91.08-29.28L91.08-29.28Q88.96-29.28 86.92-27.44L86.92-27.44L86.92-27.44Q84.88-25.60 83.52-22.80L83.52-22.80L83.52-22.80Q81.36-18.64 80.64-16L80.64-16L80.64-15.92L77.76 0L68.16 0L73.44-29.52L73.44-29.52Q71.04-29.28 69.44-27.28L69.44-27.28" fill="#93dbe9" stroke="none" stroke-width="none" transform="translate(-96.84002685546875,20.23626597086588)" style="fill: rgb(94, 111, 163);"></path></g><g class="path" style="transform: scale(0.91); transform-origin: 17.96px 5.03626px; animation: 1s linear -0.22s infinite normal forwards running breath-5e21f0f8-7c88-444b-933c-005400971c19;"><path d="M111.68 0.72L111.68 0.72Q105.52 0.72 102.32-2.36L102.32-2.36L102.32-2.36Q99.12-5.44 99.12-10.12L99.12-10.12L99.12-10.12Q99.12-14.80 99.96-18.12L99.96-18.12L99.96-18.12Q100.80-21.44 102.72-24.52L102.72-24.52L102.72-24.52Q104.64-27.60 108.52-29.36L108.52-29.36L108.52-29.36Q112.40-31.12 118.20-31.12L118.20-31.12L118.20-31.12Q124-31.12 127.24-28.04L127.24-28.04L127.24-28.04Q130.48-24.96 130.48-19.60L130.48-19.60L130.48-19.60Q130.48-10.48 125.64-4.88L125.64-4.88L125.64-4.88Q120.80 0.72 111.68 0.72L111.68 0.72zM108.16-7.52L108.16-7.52L108.16-7.52Q108.16-1.12 111.88-1.12L111.88-1.12L111.88-1.12Q115.60-1.12 118.52-7.56L118.52-7.56L118.52-7.56Q121.44-14 121.44-22.88L121.44-22.88L121.44-22.88Q121.44-29.60 117.80-29.60L117.80-29.60L117.80-29.60Q114.16-29.60 111.16-23.48L111.16-23.48L111.16-23.48Q108.16-17.36 108.16-7.52" fill="#93dbe9" stroke="none" stroke-width="none" transform="translate(-96.84002685546875,20.23626597086588)" style="fill: rgb(59, 67, 104);"></path></g><g class="path" style="transform: scale(0.91); transform-origin: 49px 3.19627px; animation: 1s linear -0.11s infinite normal forwards running breath-5e21f0f8-7c88-444b-933c-005400971c19;"><path d="M141.92-1.36L141.92-1.36L141.92-1.36Q149.84-1.36 149.84-13.04L149.84-13.04L149.84-13.04Q149.84-15.92 149-19.84L149-19.84L149-19.84Q148.16-23.76 148-24.72L148-24.72L148-24.72Q143.12-19.68 137.04-18.64L137.04-18.64L137.04-20.56L137.04-20.56Q142.80-21.84 147.84-27.12L147.84-27.12L147.84-27.44L147.84-27.44Q147.84-29.36 148.40-31.20L148.40-31.20L148.40-31.20Q148.96-33.04 149.52-33.92L149.52-33.92L150.08-34.80L152-34.80L152-34.80Q152-31.28 153.12-28.36L153.12-28.36L153.12-28.36Q154.24-25.44 155.60-23.64L155.60-23.64L155.60-23.64Q156.96-21.84 158.08-18.92L158.08-18.92L158.08-18.92Q159.20-16 159.20-12.48L159.20-12.48L159.20-12.48Q159.20-6.80 154.92-3.04L154.92-3.04L154.92-3.04Q150.64 0.72 144.64 0.72L144.64 0.72L144.64 0.72Q138.64 0.72 135.56-2L135.56-2L135.56-2Q132.48-4.72 132.48-8.28L132.48-8.28L132.48-8.28Q132.48-11.84 134.24-13.40L134.24-13.40L134.24-13.40Q136-14.96 138.40-14.96L138.40-14.96L138.40-14.96Q140.80-14.96 142.36-13.40L142.36-13.40L142.36-13.40Q143.92-11.84 143.92-9.40L143.92-9.40L143.92-9.40Q143.92-6.96 142.40-5.28L142.40-5.28L142.40-5.28Q140.88-3.60 138.48-3.60L138.48-3.60L138.48-3.60Q137.44-3.60 136.32-3.92L136.32-3.92L136.32-3.92Q138.08-1.36 141.92-1.36" fill="#93dbe9" stroke="none" stroke-width="none" transform="translate(-96.84002685546875,20.23626597086588)" style="fill: rgb(25, 29, 58);"></path></g><g class="path" style="transform: scale(0.91); transform-origin: 84.28px 5.03626px; animation: 1s linear 0s infinite normal forwards running breath-5e21f0f8-7c88-444b-933c-005400971c19;"><path d="M192.08 0.72L192.08 0.72L192.08 0.72Q185.04 0.72 184.40-5.44L184.40-5.44L184.40-5.44Q180.88 0.72 175.52 0.72L175.52 0.72L175.52 0.72Q170.16 0.72 167-2.52L167-2.52L167-2.52Q163.84-5.76 163.84-11.60L163.84-11.60L163.84-11.60Q163.84-20.72 168.32-25.92L168.32-25.92L168.32-25.92Q172.80-31.12 179.92-31.12L179.92-31.12L179.92-31.12Q185.76-31.12 187.68-25.60L187.68-25.60L187.68-25.60Q188.08-28 188.56-30.40L188.56-30.40L188.56-30.40Q194.48-30.40 197.36-30.88L197.36-30.88L198.40-31.12L192.88-0.88L192.88-0.88Q195.28-1.12 196.88-3.12L196.88-3.12L198.08-2.16L198.08-2.16Q195.68 0.72 192.08 0.72zM172.88-7.52L172.88-7.52Q172.88-3.92 173.80-2.52L173.80-2.52L173.80-2.52Q174.72-1.12 176.64-1.12L176.64-1.12L176.64-1.12Q178.56-1.12 180.56-3.20L180.56-3.20L180.56-3.20Q183.20-5.92 184.80-10.08L184.80-10.08L184.80-10.08Q185.04-11.12 185.72-15.08L185.72-15.08L185.72-15.08Q186.40-19.04 186.88-21.60L186.88-21.60L186.88-21.60Q186.64-24.64 185.20-26.88L185.20-26.88L185.20-26.88Q183.76-29.12 181.60-29.12L181.60-29.12L181.60-29.12Q177.68-29.12 175.28-22.12L175.28-22.12L175.28-22.12Q172.88-15.12 172.88-7.52L172.88-7.52" fill="#93dbe9" stroke="none" stroke-width="none" transform="translate(-96.84002685546875,20.23626597086588)" style="fill: rgb(217, 219, 238);"></path></g></g>
</g>
</g>
<style id="breath-5e21f0f8-7c88-444b-933c-005400971c19" data-anikit="">@keyframes breath-5e21f0f8-7c88-444b-933c-005400971c19
{
  0% {
    animation-timing-function: cubic-bezier(0.9647,0.2413,-0.0705,0.7911);
    transform: scale(0.9099999999999999);
  }
  51% {
    animation-timing-function: cubic-bezier(0.9226,0.2631,-0.0308,0.7628);
    transform: scale(1.02994);
  }
  100% {
    transform: scale(0.9099999999999999);
  }
}</style></svg>